<?xml version="1.0" encoding="UTF-8" standalone="no"?>
<!-- Created with Inkscape (http://www.inkscape.org/) -->

<svg
   version="1.1"
   id="svg1"
   width="1200"
   height="800"
   viewBox="0 0 1200 800"
   xmlns="http://www.w3.org/2000/svg"
   xmlns:svg="http://www.w3.org/2000/svg">
  <defs
     id="defs1" />
  <g
     id="g1">
    <g
       id="g2"
       transform="translate(17.722639,-3.5445324)">
      <path
         style="fill:#00ff00;fill-opacity:1"
         d="m 426,773.23818 c -21.6945,-2.96972 -40.5022,-9.9319 -58.12337,-21.51596 -21.56632,-14.17757 -46.96605,-41.92211 -59.62469,-65.12901 -4.24261,-7.77792 -6.02494,-9.56735 -15.52245,-15.58434 -14.31332,-9.06797 -34.23911,-25.92957 -43.95229,-37.19331 -22.79277,-26.43126 -34.41895,-53.02406 -36.51835,-83.52918 -1.90938,-27.744 1.52796,-47.75422 11.50116,-66.95305 6.59107,-12.68807 25.09219,-31.1676 39.57332,-39.52712 37.6113,-21.71187 92.18113,-31.67024 174.66667,-31.87467 17.6,-0.0436 45.8,-0.5978 62.66667,-1.23152 31.44246,-1.18136 42.84745,-2.94444 47.12206,-7.28452 2.06069,-2.09227 2.03249,-2.37764 -0.4142,-4.19093 -6.59462,-4.88739 -11.49774,-5.13633 -102.0412,-5.18091 -78.19335,-0.0385 -90.54572,-0.32525 -104.57467,-2.42761 -67.65781,-10.13908 -105.1135,-30.94431 -122.92953,-68.28272 -14.926,-31.28156 -14.29393,-75.4155 1.57186,-109.75493 12.56841,-27.20266 37.16291,-54.65993 66.9413,-74.73316 6.8233,-4.5995 9.10286,-7.13064 12.51933,-13.901 9.46971,-18.76596 28.09712,-43.022001 43.26574,-56.33931 28.36277,-24.901131 56.94962,-35.654154 95.20597,-35.811992 16.21274,-0.06689 21.01183,0.402957 29.73225,2.910891 37.25096,10.713125 61.70817,37.657515 78.82964,86.846241 12.63922,36.31153 18.96597,76.14898 24.79356,156.1166 3.23459,44.38587 5.73475,63.19409 9.74572,73.31508 3.76535,9.50123 6.6242,10.14245 8.90471,1.99726 2.46901,-8.81844 1.05233,-33.8105 -4.49585,-79.31234 -7.00484,-57.44829 -8.02838,-71.07268 -8.06349,-107.33334 -0.0447,-46.19857 4.47095,-73.204691 16.55077,-98.982339 15.27264,-32.590965 37.86849,-50.504374 73.93375,-58.6127684 13.99564,-3.1465805 45.08218,-3.1002232 58.69996,0.087535 34.9176,8.1737924 67.57963,29.6558484 94.90957,62.4227204 4.77923,5.730004 9.26624,10.418189 9.97113,10.418189 3.3667,0 31.06306,14.328596 42.80136,22.143103 33.96412,22.61083 55.90023,51.74823 64.51807,85.69838 13.68599,53.91623 -1.25868,94.86134 -45.40369,124.39613 -37.45199,25.05688 -82.9075,39.00421 -179.42746,55.05456 -53.82439,8.95049 -72.96668,13.67287 -80.66666,19.90038 -4.68868,3.79207 -4.11622,4.77469 3.61381,6.20301 10.40831,1.92322 21.9186,0.13485 78.80244,-12.24358 45.46401,-9.89338 79.36216,-16.05247 102.91708,-18.69942 21.62382,-2.42994 61.12153,-2.08104 77.20191,0.68196 59.20356,10.17261 89.75793,43.40358 96.9497,105.4426 3.27353,28.23875 -4.27034,58.77801 -21.67305,87.73736 -8.6018,14.31399 -19.07134,27.91042 -30.51869,39.63355 -8.60861,8.81601 -9.48324,10.28194 -13.7623,23.06647 -12.4419,37.17261 -34.57956,69.79332 -60.19757,88.70348 -26.15529,19.30676 -66.53962,30.12184 -94.67288,25.35377 C 748.65794,731.89641 733.29318,723.74025 715.30525,706 684.99009,676.10226 662.07982,627.94894 639.81518,547.33333 629.21042,508.9357 617.39089,476.6793 605.80503,454.51705 c -11.80096,-22.57371 -21.63594,-20.58484 -26.35044,5.32872 -8.91126,48.9812 1.42396,169.59525 -34.85829,247.77082 -15.6586,33.73884 -39.52858,55.41017 -69.54734,63.14138 -12.21302,3.14541 -35.5638,4.32617 -49.04896,2.48021 z"
         id="path2" />
    </g>
  </g>
</svg>
