<?xml version="1.0" encoding="UTF-8" standalone="no"?>
<!-- Created with Inkscape (http://www.inkscape.org/) -->

<svg
   version="1.1"
   id="svg1"
   width="370"
   height="417"
   viewBox="0 0 370 417"
   xmlns="http://www.w3.org/2000/svg"
   xmlns:svg="http://www.w3.org/2000/svg">
  <defs
     id="defs1" />
  <g
     id="g1">
    <g
       id="g2"
       transform="translate(0.80507643,0.80507697)">
      <path
         style="fill:#ff6600;fill-opacity:1"
         d="m 181.73787,346.23969 c -13.61917,-37.25683 -25.99417,-71.22501 -27.5,-75.48484 -1.50582,-4.25984 -2.98929,-7.74734 -3.29658,-7.75 -0.30729,-0.003 -11.10729,27.0397 -24,60.09414 -12.89271,33.05445 -23.74942,60.16695 -24.12603,60.25 C 102.00191,383.52836 3.0878972,313.72694 3.1252941,313 3.1394412,312.725 16.279539,300.67681 32.32551,286.22624 48.371482,271.77567 63.075005,258.49836 65.000005,256.7211 c 1.925,-1.77725 10.7,-9.71394 19.5,-17.63709 8.8,-7.92315 16.899995,-15.29108 17.999995,-16.37317 1.99705,-1.96454 1.99631,-1.96653 -0.5,-1.34328 -3.160559,0.7891 -85.265932,20.00183 -93.9941324,21.99471 -3.5717753,0.81554 -6.5931715,1.38375 -6.7142137,1.26271 -0.1210422,-0.12104 0.4225719,-12.57368 1.2080312,-27.67253 1.9443783,-37.37669 4.4910614,-88.19501 4.7707981,-95.19989 0.1262368,-3.16108 0.6388557,-5.74858 1.1391531,-5.75 0.5002975,-0.001 13.3252977,3.78322 28.4999997,8.41029 84.421724,25.74184 110.622444,33.79796 111.317554,34.22756 0.42505,0.26269 0.77281,0.1928 0.77281,-0.15533 0,-0.34812 -20.73378,-24.32741 -46.07507,-53.28732 L 56.849855,52.543388 60.67493,50.877886 C 62.778721,49.961861 87.589356,38.397767 115.80967,25.179901 147.99462,10.10508 167.27549,1.5858586 167.53827,2.323709 167.76868,2.9706691 176.08623,33.2 186.02171,69.5 c 23.63712,86.35994 23.1695,84.7254 23.97384,83.79946 0.38196,-0.4397 3.53615,-9.12446 7.00931,-19.29946 15.66997,-45.906916 33.88641,-98.2246 34.36862,-98.706812 0.29108,-0.29108 11.01363,8.428845 23.82788,19.377611 12.81426,10.948767 35.35801,30.206657 50.09723,42.795313 l 26.79858,22.888468 -2.31363,2.07271 C 332.98373,137.47771 328.42272,141.5814 328,142.02666 c -0.275,0.28967 -18.23099,16.46683 -39.9022,35.94927 -21.67122,19.48243 -38.99622,35.55514 -38.5,35.71714 0.49621,0.16201 27.4522,-2.35115 59.9022,-5.58478 32.45,-3.23364 59.15117,-5.74219 59.33593,-5.57455 0.4139,0.37553 -17.82356,103.78722 -18.40649,104.37016 -0.35857,0.35857 -46.37062,-12.0928 -119.22974,-32.26489 -12.06944,-3.3416 -19.12048,-4.87495 -18.82032,-4.09277 0.37851,0.98639 42.48508,52.69521 79.31403,97.40131 2.92133,3.54615 4.9729,6.73111 4.55905,7.0777 -0.77903,0.65241 -5.02401,2.55079 -31.25246,13.97628 -8.525,3.71361 -24.87316,10.85747 -36.32926,15.87525 -11.4561,5.01777 -21.1311,9.11858 -21.5,9.11291 -0.3689,-0.006 -11.81369,-30.49317 -25.43287,-67.75 z"
         id="path2" />
    </g>
  </g>
</svg>
